<?xml version="1.0" encoding="UTF-8"?>
<svg width="1024px" height="768px" viewBox="0 0 1024 768" version="1.1" xmlns="http://www.w3.org/2000/svg" xmlns:xlink="http://www.w3.org/1999/xlink">
    <!-- Generator: Sketch 55.2 (78181) - https://sketchapp.com -->
    <title>bg</title>
    <desc>Created with Sketch.</desc>
    <defs>
        <rect id="path-1" x="0" y="0" width="1024" height="768"></rect>
        <polygon id="path-3" points="0.868972037 0 1152.33983 0 1152.33983 768 0.868972037 768"></polygon>
        <polygon id="path-5" points="0.758910568 0.489695491 119.478788 0.489695491 119.478788 383.969392 0.758910568 383.969392"></polygon>
        <polygon id="path-7" points="0.70281549 0.553445783 564.400123 0.553445783 564.400123 580 0.70281549 580"></polygon>
    </defs>
    <g id="Web-Wireframe-" stroke="none" stroke-width="1" fill="none" fill-rule="evenodd">
        <g id="Login-web-2">
            <g id="bg">
                <mask id="mask-2" fill="white">
                    <use xlink:href="#path-1"></use>
                </mask>
                <use id="Rectangle" fill="#F8F9FB" xlink:href="#path-1"></use>
                <g mask="url(#mask-2)">
                    <g transform="translate(-129.000000, 0.000000)">
                        <g id="Group-6" stroke-width="1" fill="none">
                            <mask id="mask-4" fill="white">
                                <use xlink:href="#path-3"></use>
                            </mask>
                            <g id="Clip-2"></g>
                            <polygon id="Fill-1" fill="#1B47DB" mask="url(#mask-4)" points="0.868972037 768 1152.33983 768 1152.33983 0 0.868972037 0"></polygon>
                            <path d="M967.859827,-8.96256 L967.859827,-9.036288 L652.742317,-9.036288 C651.345206,8.26368 655.045246,25.995264 663.412557,41.243136 C674.604794,61.633536 694.010812,74.993664 713.954181,85.891584 C733.222024,96.41472 754.0098,105.053184 771.312477,118.79424 C779.526258,125.31456 786.77281,133.034496 791.885313,142.235136 C798.886218,154.810368 801.097031,169.196544 800.160506,183.4368 C798.103222,214.47168 782.320479,241.8432 770.283835,269.792256 C764.388336,283.450368 759.229774,297.517056 756.865433,312.259584 C754.792796,325.226496 754.685326,338.38848 756.4202,351.399936 C763.620692,405.287424 799.48498,451.264512 845.466804,478.485504 C869.985326,493.006848 897.159893,502.775808 924.91787,508.959744 C938.888975,512.074752 953.059667,514.289664 967.291771,515.793408 C967.476005,515.81184 967.66024,515.833344 967.859827,515.854848 C967.859827,515.854848 1044.62414,522.336768 1054.03545,597.576192 C1063.4314,672.815616 1163.70095,695.87712 1163.70095,695.87712 L1163.70095,-8.96256 L967.859827,-8.96256" id="Fill-5" fill="#FFFFFE" mask="url(#mask-4)"></path>
                        </g>
                        <path d="M1047.80598,655.457336 C1044.55618,655.337932 1041.33871,655.175883 1038.18591,655.003173 C1036.68227,654.921082 1036.5691,656.458415 1038.07274,656.53944 C1041.32254,656.718547 1044.63702,656.881662 1048,657 C1047.77365,656.439225 1047.74131,655.886979 1047.80598,655.457336" id="Fill-110" fill="#D6614C"></path>
                        <path d="M1148.42268,614.204477 C1148.27148,613.815236 1148.17526,613.410959 1148.10653,613 C1147.08935,614.025727 1146.04467,615.029736 1145,616.022051 C1145.50859,616.563314 1145.89347,617.23154 1146.12715,618 C1147.10309,617.087872 1148.05155,616.160708 1149,615.22018 C1148.78007,614.979619 1148.58763,614.650518 1148.42268,614.204477" id="Fill-112" fill="#D6614C"></path>
                        <g id="Group-117" stroke-width="1" fill="none" transform="translate(1034.000000, 92.000000)">
                            <mask id="mask-6" fill="white">
                                <use xlink:href="#path-5"></use>
                            </mask>
                            <g id="Clip-114"></g>
                            <path d="M77.5636364,378.450392 C77.5636364,380.300887 77.430303,382.14296 77.2121212,383.969392 C77.9272727,383.270343 78.569697,382.731317 79.1393939,382.394425 C79.2484848,381.116645 79.3090909,379.830442 79.3090909,378.539427 C79.3090909,377.424076 77.5636364,377.331431 77.5636364,378.450392" id="Fill-113" fill="#D6614C" mask="url(#mask-6)"></path>
                            <path d="M1.11515152,0.489695491 C1.11515152,0.489695491 -5.46666667,135.08978 37.9515152,209.942203 C52.6787879,235.346209 69.3212121,251.085046 84.8727273,260.791124 C117.29697,281.031068 159.818182,259.691414 162.630303,221.771898 C163.975758,203.58699 161.066667,180.957524 149.2,154.116917 C114.218182,75.0365093 1.11515152,0.489695491 1.11515152,0.489695491" id="Fill-115" fill="#CCD6F7" mask="url(#mask-6)"></path>
                            <path d="M107.333333,203.052777 C104.606061,197.735911 101.890909,192.420248 99.1757576,187.103382 C112.145455,169.095342 125.115152,151.086099 138.084848,133.076855 C137.721212,132.47767 137.345455,131.878485 136.969697,131.280503 C124.036364,149.23801 111.10303,167.195516 98.169697,185.153023 C95.6,180.126124 93.030303,175.099225 90.4606061,170.07353 C102.593939,152.653846 115.478788,135.770782 129.127273,119.489309 C128.739394,118.946674 128.351515,118.405241 127.963636,117.863809 C114.387879,134.045418 101.539394,150.80696 89.4545455,168.108732 C86.9818182,163.280359 84.5090909,158.450782 82.0363636,153.621205 C94.2424242,137.623684 106.448485,121.624959 118.654545,105.627438 C118.242424,105.106459 117.818182,104.586684 117.406061,104.066909 C105.284848,119.944112 93.1757576,135.822519 81.0545455,151.700925 C78.4727273,146.637931 75.8787879,141.574937 73.2848485,136.511943 C83.3818182,120.619098 94.1212121,105.146164 105.490909,90.128034 C105.054545,89.6371353 104.606061,89.1474398 104.157576,88.6589475 C92.9090909,103.50382 82.2666667,118.795073 72.2545455,134.497814 C69.5878788,129.283219 66.9212121,124.069827 64.2545455,118.856435 C73.5151515,104.705799 83.3818182,90.9654493 93.830303,77.6618546 C93.369697,77.1926133 92.9090909,76.7245751 92.4484848,76.2577401 C82.1333333,89.3748414 72.3878788,102.917869 63.2363636,116.857948 C61.0666667,112.611915 58.8848485,108.365882 56.7151515,104.119849 C64.5575758,91.0075607 72.9939394,78.2634462 82,65.9151788 C81.5272727,65.4603756 81.0545455,65.0055724 80.5818182,64.5543788 C71.7212121,76.6872764 63.4060606,89.2039894 55.6727273,102.075641 C53.030303,96.899548 50.3757576,91.7234546 47.7333333,86.5473613 C53.3575758,74.7116499 60.2424242,63.5316732 68.2545455,53.1518133 C67.769697,52.7174642 67.2848485,52.2843183 66.8,51.8523756 C58.969697,61.9831767 52.2181818,72.8731862 46.6181818,84.3840382 C45.7212121,82.6213751 44.8242424,80.8587119 43.9151515,79.0960488 C43.9393939,78.7495321 43.7939394,78.3921867 43.4424242,78.1792233 C42.8,76.901443 42.1454545,75.6248658 41.4909091,74.3494918 C45.7454545,63.7157602 51.8545455,53.9735873 59.5757576,45.5067883 C59.0787879,45.0808615 58.5939394,44.6585443 58.0969697,44.2374302 C50.630303,52.4551703 44.6181818,61.8424042 40.3151515,72.0658504 C38.3393939,68.1855851 36.3515152,64.3053199 34.3636364,60.4262578 C38.5333333,52.0244308 43.2969697,43.9619013 48.6424242,36.2711554 C48.1454545,35.8524477 47.6363636,35.4373496 47.1393939,35.025861 C41.9636364,42.4422812 37.3333333,50.2076244 33.2727273,58.2869984 C31.430303,54.6810589 29.5878788,51.0751194 27.7333333,47.4691798 C31.369697,42.3532456 34.9939394,37.2385146 38.6181818,32.1225804 C39.2121212,31.2767427 39.830303,30.4321082 40.4242424,29.582661 C39.9151515,29.1771883 39.4060606,28.774122 38.9090909,28.3758684 C38.0242424,29.6319915 37.1151515,30.87127 36.230303,32.1129549 C33.0666667,36.5779671 29.9030303,41.0441825 26.7393939,45.5091947 C25.1757576,42.4603289 23.6121212,39.4102599 22.0606061,36.360191 C24.4848485,31.2574918 27.1272727,26.2702981 29.9878788,21.4010164 C29.4666667,20.9979501 28.9454545,20.5984934 28.4363636,20.2062557 C25.7575758,24.763913 23.2484848,29.4226377 20.9454545,34.1824297 C19.1151515,30.6222111 17.2969697,27.0619926 15.4787879,23.501774 C17.0909091,20.3867332 18.8484848,17.3607279 20.7393939,14.4153358 C20.2060606,14.0194886 19.6848485,13.6320637 19.1757576,13.2518578 C17.4666667,15.8952509 15.8787879,18.6060223 14.4,21.3865782 C13.2969697,19.2376934 12.1939394,17.0900117 11.1030303,14.94233 C12.0363636,13.1014599 12.9818182,11.2605899 13.9151515,9.42092308 C13.369697,9.02507586 12.8363636,8.64366684 12.3272727,8.27308647 C11.5515152,9.78428435 10.7757576,11.2954822 10,12.8078833 C8.36363636,9.59779098 6.72727273,6.38890186 5.07878788,3.17880955 C2.53333333,1.41975597 1.11515152,0.489695491 1.11515152,0.489695491 C1.11515152,0.489695491 1.04242424,2.12241485 0.957575758,5.12555968 C2.78787879,8.70262281 4.61818182,12.2808891 6.44848485,15.8591554 C4.60606061,14.9856446 2.71515152,14.2577188 0.8,13.647705 C0.787878788,14.3034398 0.787878788,14.9784255 0.775757576,15.6762716 C3.24848485,16.4992488 5.64848485,17.5484244 7.96363636,18.8346271 C9.24848485,21.332435 10.5212121,23.830243 11.8060606,26.3280509 C8.23030303,24.619531 4.54545455,23.2430897 0.763636364,22.1963204 C0.763636364,22.8544615 0.775757576,23.5222281 0.775757576,24.2056361 C4.76363636,25.3414408 8.64242424,26.8598578 12.3878788,28.7705125 C12.630303,28.8968467 12.8727273,28.9100817 13.0909091,28.8547353 C15.4424242,33.4484881 17.7939394,38.043444 20.1454545,42.6371968 C13.830303,40.1562334 7.43030303,37.905078 0.957575758,35.8716987 C0.981818182,36.5466844 0.993939394,37.2324987 1.01818182,37.9231257 C7.92727273,40.1093093 14.7515152,42.5445517 21.4787879,45.2444944 C23.5878788,49.3774281 25.7090909,53.5103618 27.8181818,57.6432955 C19.0909091,54.3694345 10.2787879,51.3121464 1.38181818,48.4774472 C1.41818182,49.1620584 1.44242424,49.8514822 1.47878788,50.5457188 C10.7757576,53.5248 20,56.745721 29.1272727,60.2072785 C31.7212121,65.272679 34.3151515,70.3380796 36.9090909,75.4034801 C25.4909091,70.6833931 13.8909091,66.4048743 2.14545455,62.5691268 C2.19393939,63.2645666 2.23030303,63.9624127 2.27878788,64.6638684 C14.4606061,68.6632488 26.4606061,73.1378865 38.2787879,78.0841719 C39.9878788,81.424208 41.6969697,84.764244 43.4060606,88.1042801 C30.0727273,85.033757 16.7393939,81.9644371 3.40606061,78.8939141 C3.46666667,79.5688997 3.53939394,80.2450886 3.6,80.9236838 C17.2484848,84.0676011 30.9090909,87.2115183 44.5575758,90.3554355 C47.8666667,96.8309666 51.1878788,103.308904 54.4969697,109.785638 C38.2545455,103.15249 21.6727273,97.4072912 4.81212121,92.5692923 C4.8969697,93.2659353 4.96969697,93.9637814 5.05454545,94.664034 C22.3151515,99.6500244 39.2727273,105.584123 55.8545455,112.447079 C58.8848485,118.378771 61.9272727,124.30926 64.9575758,130.240953 C45.9878788,125.495599 27.0060606,120.749042 8.03636364,116.003688 C8.14545455,116.697925 8.25454545,117.392161 8.37575758,118.087601 C27.6242424,122.901536 46.8848485,127.716675 66.1333333,132.531813 C67.2848485,134.793797 68.4484848,137.054578 69.6,139.316562 C71.0060606,142.067039 72.4121212,144.817515 73.8181818,147.567992 C52.9333333,142.794964 32.0484848,138.021937 11.1636364,133.24891 C11.3090909,133.943147 11.4424242,134.637384 11.5878788,135.33162 C32.7151515,140.159994 53.8424242,144.988367 74.969697,149.816741 C77.1393939,154.059164 79.3090909,158.30279 81.4909091,162.545214 C59.6484848,159.705702 37.8181818,156.867393 15.9757576,154.027881 C16.1575758,154.70407 16.3393939,155.379056 16.5212121,156.052838 C38.4121212,158.899569 60.3030303,161.7463 82.1939394,164.591828 C82.3151515,164.608673 82.4242424,164.599047 82.5212121,164.578593 C85.6242424,170.642636 88.7272727,176.707881 91.830303,182.771924 C68.2787879,179.050479 44.7272727,175.330237 21.1757576,171.609995 C21.4060606,172.300622 21.6363636,172.990046 21.8666667,173.677063 C45.5515152,177.418962 69.2363636,181.159658 92.9212121,184.901558 C95.2484848,189.44598 97.5757576,193.987996 99.8909091,198.532418 C76.7151515,197.429099 53.5393939,196.32578 30.3636364,195.222462 C30.6666667,195.889025 30.9818182,196.551979 31.2969697,197.211323 C54.4969697,198.317048 77.7090909,199.42157 100.909091,200.526092 C103.393939,205.364091 105.866667,210.200887 108.339394,215.038886 C85.9878788,216.391264 63.5757576,216.492331 41.2121212,215.362542 C41.6363636,216.041137 42.0606061,216.713717 42.4848485,217.377874 C64.7515152,218.44991 87.0545455,218.294699 109.29697,216.909836 C113.309091,224.758198 117.321212,232.606561 121.345455,240.456127 C101.333333,241.711047 81.2848485,242.023875 61.2484848,241.410251 C61.9030303,242.093659 62.569697,242.760223 63.2242424,243.418364 C82.8,243.956187 102.4,243.602451 121.951515,242.353547 C122.072727,242.346328 122.169697,242.317451 122.278788,242.27895 C123.963636,245.581687 125.648485,248.884424 127.345455,252.187162 C111.418182,253.881244 95.5030303,255.576528 79.5757576,257.271813 C80.4,257.849341 81.2121212,258.413634 82.0242424,258.956269 C97.4424242,257.315128 112.872727,255.673986 128.290909,254.031641 C129.963636,257.30069 131.624242,260.568535 133.29697,263.83638 C134.678788,263.199896 136.036364,262.500847 137.357576,261.746451 C136.89697,260.840454 136.424242,259.93566 135.963636,259.030867 C144.678788,248.108371 153.381818,237.187079 162.09697,226.26699 C162.290909,225.052978 162.448485,223.820919 162.557576,222.569608 C153.369697,234.091289 144.181818,245.611767 134.993939,257.132244 C133.50303,254.210916 132,251.289587 130.509091,248.368259 C141.260606,234.644753 152.012121,220.922451 162.763636,207.198945 C162.715152,206.241212 162.642424,205.270243 162.569697,204.293258 C151.551515,218.348842 140.545455,232.404427 129.539394,246.460011 C127.212121,241.928823 124.89697,237.397636 122.581818,232.866449 C135.054545,217.51624 147.527273,202.166031 160,186.815822 C159.830303,186.016908 159.648485,185.211979 159.466667,184.402237 C146.848485,199.92811 134.230303,215.452781 121.612121,230.978655 C119.587879,227.024995 117.575758,223.072539 115.551515,219.11888 C115.490909,219.010593 115.430303,218.901103 115.381818,218.792817 C127.830303,201.797857 141.163636,185.458631 155.321212,169.837706 C155.090909,169.13986 154.848485,168.439607 154.593939,167.735745 C140.351515,183.407204 126.933333,199.802979 114.387879,216.853286 C114.133333,216.345543 113.866667,215.836596 113.612121,215.32765 C113.575758,215.208535 113.527273,215.097842 113.442424,215.007603 C111.745455,211.69524 110.060606,208.384081 108.363636,205.072921 C120.351515,185.917044 133.248485,167.342305 147.018182,149.407658 C146.70303,148.755533 146.387879,148.103408 146.060606,147.452486 C132.266667,165.363068 119.345455,183.918557 107.333333,203.052777" id="Fill-116" fill="#FFFFFE" mask="url(#mask-6)"></path>
                        </g>
                        <path d="M595,628 C595,628 441.46916,664.59525 371.339419,737.529065 C347.537308,762.281465 335.22301,786.00559 329.34238,806.546516 C317.080314,849.377514 354.858907,889.916794 398.419813,880.671533 C419.309262,876.237189 443.822641,865.605522 470.167188,843.578284 C547.782903,778.678547 595,628 595,628" id="Fill-118" fill="#CCD6F7"></path>
                        <path d="M401.939287,813.119088 C407.026529,808.336397 412.115306,803.555246 417.205615,798.772555 C441.616101,807.397105 466.025054,816.023194 490.434007,824.647744 C490.990568,824.042594 491.544063,823.432824 492.094491,822.819974 C467.753,814.218522 443.413042,805.618609 419.071551,797.017156 C423.884346,792.494695 428.695608,787.973775 433.50687,783.451314 C456.985156,791.332129 480.106199,800.238466 502.79334,810.176486 C503.277839,809.568255 503.760805,808.960025 504.240705,808.347176 C481.690021,798.452272 458.719234,789.556713 435.386605,781.683597 C440.010814,777.341295 444.631956,772.995914 449.254632,768.652073 C471.159827,777.079525 493.065023,785.505438 514.970218,793.93289 C515.420987,793.295404 515.868689,792.656377 516.31639,792.01581 C494.576783,783.651491 472.83411,775.288711 451.092969,766.922851 C455.939496,762.369594 460.784489,757.814797 465.632549,753.26 C486.735867,759.3577 507.578537,766.313081 528.113029,774.124604 C528.520867,773.47018 528.928705,772.814215 529.333477,772.15671 C509.028969,764.417559 488.423949,757.512992 467.559813,751.447628 C472.550463,746.757326 477.541113,742.067025 482.531762,737.376723 C501.41037,743.107945 520.02373,749.653734 538.338111,756.992531 C538.716818,756.327328 539.093991,755.662124 539.469632,754.99846 C521.409766,747.745893 503.055521,741.267856 484.445228,735.57821 C488.508276,731.759448 492.57439,727.940686 496.637439,724.120385 C513.893894,728.60435 530.928031,733.878245 547.699987,739.915892 C548.057229,739.23683 548.41447,738.559307 548.768646,737.880245 C532.283403,731.931908 515.546711,726.727306 498.595368,722.280296 C503.54922,717.623871 508.504605,712.967445 513.458458,708.31102 C528.565331,710.737781 543.341027,714.787517 557.584693,720.357057 C557.91587,719.671836 558.245514,718.989694 558.573624,718.307552 C544.667267,712.850419 530.261078,708.860737 515.529846,706.366223 C517.216394,704.780205 518.904475,703.194187 520.591024,701.60817 C520.986596,701.51578 521.342304,701.243231 521.471095,700.782824 C522.691543,699.634116 523.913524,698.486948 525.135505,697.33824 C538.448503,698.619373 551.359797,702.273373 563.361888,708.143179 C563.679265,707.453339 563.996643,706.766577 564.309421,706.079816 C552.667638,700.400948 540.190248,696.754647 527.321884,695.284116 C531.035357,691.793336 534.74883,688.302557 538.463836,684.813318 C549.240879,686.722698 559.833935,689.422009 570.197008,692.89277 C570.50212,692.190611 570.804165,691.491531 571.106211,690.795531 C561.108046,687.435637 550.89523,684.797919 540.510692,682.888539 C543.96045,679.645671 547.413274,676.401263 550.864565,673.156856 C557.780946,675.542042 564.695794,677.927228 571.612175,680.312414 C572.754428,680.706609 573.898215,681.110043 575.045068,681.502698 C575.33638,680.802078 575.62616,680.106078 575.909807,679.414697 C574.215592,678.834184 572.529044,678.219795 570.850162,677.640821 C564.813852,675.55744 558.777543,673.475599 552.741233,671.393758 C555.660495,668.651333 558.579757,665.905828 561.499019,663.163403 C568.012161,664.212023 574.467041,665.54551 580.859059,667.153085 C581.141173,666.435527 581.421753,665.722589 581.696201,665.01889 C575.712021,663.508324 569.674178,662.23489 563.584205,661.203208 C566.992566,658.000376 570.400927,654.799083 573.807754,651.594711 C577.824806,652.383101 581.791261,653.360888 585.711719,654.518836 C585.9831,653.793579 586.249881,653.079101 586.507463,652.376941 C582.990243,651.336021 579.430093,650.438304 575.833146,649.69303 C577.887668,647.760551 579.943724,645.828073 581.999779,643.895595 C584.370146,644.345224 586.740513,644.794852 589.11088,645.24448 C589.377661,644.503825 589.635243,643.781648 589.883626,643.082568 C587.936429,642.713011 585.990766,642.344993 584.043569,641.975436 C587.116153,639.088267 590.188738,636.201098 593.261322,633.31393 C594.411241,629.883204 595,628 595,628 C595,628 593.140197,628.445009 589.742569,629.331947 C586.31581,632.551717 582.892117,635.769948 579.468424,638.989718 C579.854797,636.646107 580.058716,634.294797 580.121578,631.941947 C579.385629,632.148284 578.62515,632.362319 577.838605,632.585594 C577.714413,635.619045 577.312708,638.650957 576.618157,641.665931 C574.227858,643.912533 571.837559,646.160675 569.447261,648.407277 C570.209274,643.85094 570.561916,639.273046 570.517452,634.70593 C569.778437,634.924585 569.030223,635.14632 568.265144,635.375753 C568.278943,640.207719 567.829707,645.050463 566.892907,649.857791 C566.830044,650.174994 566.89444,650.452162 567.026297,650.680056 C562.629006,654.812942 558.231715,658.945827 553.834423,663.078713 C554.576504,655.197898 555.036472,647.301684 555.228125,639.396232 C554.473778,639.636444 553.711765,639.879736 552.942086,640.127648 C552.719768,648.573578 552.193872,657.00873 551.339865,665.423864 C547.384143,669.140997 543.426887,672.85967 539.471165,676.578343 C540.322105,665.731828 540.903198,654.868375 541.212909,643.997223 C540.453963,644.254374 539.691949,644.513064 538.920737,644.776374 C538.58496,656.158747 537.950205,667.531882 537.016471,678.884998 C532.168411,683.441335 527.318818,687.999212 522.470758,692.555549 C524.077579,678.232113 525.130905,663.856324 525.638403,649.455897 C524.873323,649.733065 524.105177,650.013313 523.332431,650.2951 C522.778937,665.225226 521.636684,680.124556 519.904139,694.966912 C516.707363,697.971107 513.510587,700.975302 510.313812,703.979497 C509.450606,688.057725 508.585866,672.134413 507.72266,656.211101 C506.985179,656.500588 506.246164,656.791615 505.504083,657.084181 C506.390287,673.392449 507.274958,689.699177 508.158096,706.005905 C501.959265,711.832596 495.7589,717.659287 489.560069,723.484438 C491.757181,703.146453 492.845771,682.709919 492.825839,662.254907 C492.069959,662.572111 491.311013,662.890854 490.552066,663.212677 C490.532134,684.151194 489.35155,705.069692 487.011848,725.880403 C481.334313,731.21589 475.656778,736.551378 469.979243,741.886865 C469.171233,719.099022 468.364757,696.311178 467.556747,673.523334 C466.814666,673.875953 466.072584,674.230113 465.32897,674.585812 C466.149246,697.706258 466.967988,720.828243 467.785197,743.948689 C465.621816,745.982795 463.456901,748.016902 461.29352,750.051008 C458.659438,752.525504 456.02689,755 453.392808,757.474496 C451.999106,732.538599 450.60387,707.602701 449.210168,682.665264 C448.475753,683.05022 447.742871,683.436716 447.009989,683.824751 C448.420557,709.048595 449.831124,734.27244 451.241692,759.497824 C447.178644,763.313506 443.118662,767.132267 439.057148,770.947949 C435.184219,745.583981 431.312825,720.216933 427.439896,694.851425 C426.739212,695.273337 426.040061,695.695248 425.34091,696.12024 C429.223038,721.55042 433.106699,746.980601 436.988826,772.410781 C437.010291,772.553985 437.054755,772.671011 437.109951,772.777259 C431.305158,778.232853 425.501899,783.688446 419.697107,789.14404 C416.258081,761.567346 412.820589,733.993732 409.383097,706.418577 C408.68088,706.899002 407.981729,707.382507 407.285645,707.867551 C410.743069,735.599767 414.200492,763.328904 417.657916,791.06112 C413.308155,795.147811 408.959927,799.234502 404.610166,803.322732 C398.356138,777.024092 392.100577,750.725451 385.84655,724.42835 C385.197995,724.987306 384.552507,725.549341 383.913152,726.114456 C390.176379,752.448513 396.439606,778.78103 402.7013,805.115087 C398.070958,809.468167 393.440617,813.819707 388.808742,818.171248 C380.064756,793.597209 372.706805,768.555064 366.744091,743.15722 C366.118535,743.85476 365.502178,744.54922 364.895021,745.24368 C370.8884,770.50602 378.270881,795.41266 387.017934,819.854275 C379.506661,826.914364 371.992322,833.975993 364.479516,841.036083 C356.601803,819.055106 349.768216,796.71997 343.983355,774.103047 C343.426794,775.059277 342.890165,776.009348 342.364269,776.960959 C348.090867,799.048183 354.821728,820.862859 362.546119,842.340313 C362.592116,842.469658 362.659577,842.578986 362.734705,842.675995 C359.573194,845.647853 356.411683,848.619712 353.251705,851.588491 C346.2004,834.323993 339.149095,817.061035 332.099323,799.796537 C331.716016,800.90213 331.348042,802.001564 331,803.090219 C337.828987,819.811159 344.656441,836.53056 351.483895,853.248421 C348.356115,856.189483 345.226801,859.130545 342.099021,862.070068 C343.261206,863.406635 344.481654,864.690847 345.755764,865.921166 C346.622037,865.106599 347.488309,864.290493 348.354582,863.477466 C363.43079,869.652158 378.506998,875.826849 393.583207,882 C395.009106,881.82292 396.442672,881.593487 397.882371,881.308619 C381.979754,874.796707 366.075604,868.283255 350.172987,861.769802 C352.968058,859.142864 355.764661,856.514386 358.562798,853.885908 C377.44294,861.427962 396.323081,868.968476 415.204755,876.51207 C416.262681,876.140973 417.332873,875.748318 418.404597,875.343344 C399.066022,867.618051 379.725913,859.894298 360.387337,852.169005 C364.724832,848.093093 369.062328,844.015641 373.399823,839.939729 C394.664131,848.881482 415.931504,857.820156 437.197345,866.76037 C438.039086,866.307662 438.88236,865.841095 439.731767,865.368369 C418.223677,856.326527 396.715587,847.283146 375.207497,838.241304 C378.991498,834.685852 382.775499,831.12886 386.557966,827.573408 C386.663759,827.47486 386.768018,827.377851 386.870744,827.279302 C409.977989,835.65902 432.628332,845.229021 454.740513,855.963129 C455.448863,855.473465 456.157214,854.974563 456.867097,854.467961 C434.667522,843.647623 411.923652,833.996011 388.727481,825.534682 C389.215047,825.077355 389.701079,824.620027 390.188645,824.1627 C390.312836,824.087249 390.418629,823.99024 390.49529,823.873213 C393.664467,820.895195 396.833645,817.915637 400.004356,814.937619 C425.385374,822.087018 450.407617,830.448258 474.991358,839.989003 C475.621514,839.423888 476.250136,838.854153 476.877226,838.278259 C452.31035,828.699019 427.303439,820.310062 401.939287,813.119088" id="Fill-119" fill="#F8F9FB"></path>
                        <g id="Group-126" stroke-width="1" fill="none" transform="translate(590.000000, 109.000000)">
                            <mask id="mask-8" fill="white">
                                <use xlink:href="#path-7"></use>
                            </mask>
                            <g id="Clip-122"></g>
                            <path d="M315.535062,0.553445783 C315.535062,0.553445783 355.963951,209.001253 445.833827,316.691181 C476.343827,353.239566 506.00284,374.56959 531.853333,386.799904 C585.78642,412.303133 638.770864,372.002217 628.754321,313.113349 C623.941358,284.870843 611.399753,250.526458 584.461111,211.266747 C505.082099,95.590988 315.535062,0.553445783 315.535062,0.553445783" id="Fill-124" fill="#CCD6F7" mask="url(#mask-8)"></path>
                            <path d="M525.045432,270.81388 C536.945309,240.811807 548.845185,210.809735 560.759012,180.806265 C560.005679,179.946747 559.252346,179.088627 558.499012,178.231904 C546.627037,208.15012 534.769012,238.06694 522.897037,267.983759 C517.344691,260.69253 511.806296,253.401301 506.267901,246.108675 C517.177284,217.160386 529.398025,188.905301 542.888272,161.445446 C542.148889,160.678169 541.395556,159.910892 540.628272,159.14641 C527.193827,186.438554 515.000988,214.499373 504.091605,243.258988 C498.77642,236.254265 493.447284,229.248145 488.118148,222.243422 C499.669259,195.471181 511.22037,168.69894 522.785432,141.926699 C521.990247,141.197157 521.195062,140.469012 520.399877,139.743663 C508.932469,166.314651 497.465062,192.885639 485.997654,219.456627 C480.417407,212.113687 474.83716,204.767952 469.256914,197.423614 C477.822593,171.183855 487.462469,145.475181 498.176543,120.359084 C497.367407,119.679855 496.558272,119.003422 495.735185,118.328386 C485.118765,143.157976 475.548642,168.568964 467.024815,194.501253 C461.27716,186.937494 455.529506,179.373735 449.781852,171.811373 C457.789506,148.400337 466.829506,125.514795 476.86,103.198072 C476.036914,102.555181 475.199877,101.915084 474.37679,101.276386 C464.471852,123.280048 455.529506,145.842747 447.577654,168.912771 C442.890247,162.75359 438.21679,156.593012 433.529383,150.433831 C439.904815,128.869012 447.25679,107.766795 455.585309,87.1746988 C454.734321,86.5569639 453.883333,85.9406265 453.046296,85.3270843 C444.843333,105.562795 437.589012,126.290458 431.269383,147.468145 C425.56358,139.960289 419.857778,132.451036 414.151975,124.941783 C417.820988,105.729108 423.540741,87.3074699 431.171728,69.9214458 C430.320741,69.3358554 429.455802,68.7544578 428.604815,68.1744578 C421.141235,85.1453976 415.505185,103.097446 411.76642,121.804193 C409.813333,119.246602 407.874198,116.689012 405.935062,114.132819 C405.823457,113.596145 405.502593,113.070651 404.916667,112.800916 C403.507654,110.950506 402.098642,109.098699 400.68963,107.246892 C402.851975,90.1264096 407.985802,74.0541205 415.909753,59.6645301 C415.044815,59.0957108 414.193827,58.5296867 413.328889,57.9678554 C405.67,71.9297831 400.550123,87.4374458 398.178519,103.933205 C393.895679,98.3051084 389.62679,92.677012 385.343951,87.0489157 C388.189877,73.3804819 392.026296,60.1299277 396.839259,47.3503614 C395.96037,46.7955181 395.095432,46.2448675 394.216543,45.6984096 C389.570988,58.0251566 385.818272,70.7921446 382.986296,83.9462651 C379.01037,78.7150843 375.034444,73.4839036 371.058519,68.2527229 C374.350864,59.74 377.64321,51.2272771 380.949506,42.7145542 C381.49358,41.3071807 382.051605,39.9012048 382.595679,38.4896386 C381.71679,37.9529639 380.837901,37.4204819 379.972963,36.894988 C379.177778,38.9843855 378.32679,41.0514217 377.531605,43.1184578 C374.643827,50.5480482 371.77,57.9790361 368.896173,65.4100241 C365.534074,60.985253 362.158025,56.5618795 358.795926,52.1371084 C360.386296,43.8535904 362.339383,35.7098313 364.627284,27.7114217 C363.734444,27.1831325 362.827654,26.6590361 361.948765,26.1433253 C359.80037,33.6316145 357.944938,41.2428916 356.39642,48.9771566 C352.476296,43.8130602 348.542222,38.6475663 344.622099,33.4834699 C345.78,28.4060241 347.175062,23.4361928 348.793333,18.5697831 C347.886543,18.0540723 346.993704,17.546747 346.114815,17.052 C344.65,21.4222651 343.380494,25.8763855 342.292346,30.415759 C339.920741,27.2991325 337.549136,24.1839036 335.177531,21.0672771 C335.84716,18.0680482 336.50284,15.0688193 337.172469,12.0695904 C336.237778,11.5580723 335.344938,11.0619277 334.466049,10.5825542 C333.921975,13.0451084 333.363951,15.5076627 332.819877,17.9702169 C329.29037,13.3148434 325.746914,8.65807229 322.203457,4.0026988 C317.906667,1.74 315.535062,0.553445783 315.535062,0.553445783 C315.535062,0.553445783 316.023333,3.08168675 317.027778,7.72028916 C320.961852,12.9109398 324.909877,18.1015904 328.857901,23.292241 C325.90037,22.2692048 322.928889,21.4781687 319.943457,20.8744096 C320.180617,21.8848675 320.417778,22.9260723 320.668889,24.0022169 C324.519259,24.8379759 328.341728,26.0343133 332.136296,27.6093976 C334.898519,31.2319518 337.64679,34.8559036 340.409012,38.4784578 C334.661358,36.4729157 328.871852,34.9970602 323.068395,34.0453012 C323.319506,35.0571566 323.570617,36.0871807 323.835679,37.1367711 C329.96,38.1905542 336.084321,39.8508916 342.138889,42.1401446 C342.543457,42.2910843 342.892222,42.2687229 343.185185,42.1443373 C348.26321,48.8094458 353.327284,55.4731566 358.391358,62.1382651 C348.430617,59.422747 338.428025,57.0733976 328.411481,55.0720482 C328.690494,56.1104578 328.969506,57.1614458 329.248519,58.2222169 C339.948642,60.3828916 350.634815,62.9404819 361.265185,65.9201446 C365.827037,71.9158072 370.388889,77.9114699 374.93679,83.9071325 C361.223333,80.3907952 347.468025,77.225253 333.698765,74.4119036 C333.991728,75.461494 334.284691,76.5180723 334.591605,77.5816386 C349.016543,80.5431325 363.41358,83.891759 377.768765,87.6261205 C383.349012,94.9746506 388.94321,102.321783 394.523457,109.671711 C376.429506,104.398602 358.237901,99.8368675 340.004444,95.9837108 C340.325309,97.0458795 340.646173,98.112241 340.980988,99.1841928 C359.884074,103.216241 378.731358,108.008578 397.480988,113.559807 C401.163951,118.405253 404.846914,123.250699 408.529877,128.094747 C388.301481,125.69788 368.087037,123.301012 347.858642,120.902747 C348.193457,121.931373 348.528272,122.961398 348.877037,123.995614 C369.593704,126.451181 390.29642,128.905349 411.013086,131.360916 C418.155802,140.755518 425.298519,150.151518 432.441235,159.547518 C406.744198,152.171036 380.865802,146.221494 354.931605,141.71706 C355.308272,142.776434 355.684938,143.837205 356.061605,144.902169 C382.60963,149.56453 409.087901,155.740482 435.384815,163.40906 C441.913704,172.012627 448.456543,180.61759 454.999383,189.221157 C426.079753,185.229639 397.146173,181.23812 368.212593,177.246602 C368.631111,178.296193 369.04963,179.345783 369.482099,180.396771 C398.834198,184.44559 428.172346,188.495807 457.524444,192.546024 C460.021605,195.826169 462.518765,199.106313 465.015926,202.386458 C468.04321,206.376578 471.084444,210.366699 474.111728,214.358217 C442.429877,210.657398 410.761975,206.959373 379.080123,203.259952 C379.540494,204.303952 380.000864,205.347952 380.475185,206.391952 C412.505802,210.133301 444.55037,213.876048 476.594938,217.618795 C481.268395,223.773783 485.955802,229.928771 490.629259,236.085157 C458.305679,235.528916 425.996049,234.974072 393.672469,234.417831 C394.188642,235.428289 394.690864,236.435952 395.207037,237.443614 C427.60037,237.999855 460.007654,238.556096 492.400988,239.113735 C492.582346,239.11653 492.735802,239.082988 492.875309,239.032675 C499.557654,247.830506 506.24,256.628337 512.936296,265.424771 C477.836543,263.813349 442.73679,262.199133 407.623086,260.587711 C408.209012,261.612145 408.794938,262.632386 409.380864,263.649831 C444.689877,265.272434 479.984938,266.893639 515.28,268.516241 C520.302222,275.107277 525.310494,281.698313 530.318765,288.287952 C496.725679,290.641494 463.132593,292.995036 429.539506,295.347181 C430.223086,296.318506 430.906667,297.287036 431.590247,298.247181 C465.239136,295.892241 498.874074,293.535904 532.509012,291.180964 C537.852099,298.198265 543.181235,305.216964 548.524321,312.234265 C517.009877,318.224337 484.965309,322.296916 452.530123,324.467373 C453.381111,325.438699 454.246049,326.400241 455.097037,327.347807 C487.364815,325.10747 519.241975,320.970602 550.589012,314.948386 C559.238395,326.333157 567.901728,337.720723 576.551111,349.105494 C548.370864,354.53653 519.772099,358.522458 490.86642,361.078651 C492.052222,362.017831 493.238025,362.930458 494.423827,363.827711 C522.659877,361.233783 550.589012,357.264627 578.127531,351.923036 C578.294938,351.889494 578.434444,351.826602 578.56,351.751133 C582.201111,356.540675 585.842222,361.331614 589.483333,366.123952 C567.315802,371.517253 545.148272,376.911952 522.980741,382.305253 C524.361852,383.051566 525.742963,383.776916 527.110123,384.471518 C548.580123,379.247325 570.050123,374.023133 591.520123,368.800337 C595.133333,373.540964 598.732593,378.28159 602.331852,383.023614 C604.075679,381.800723 605.749753,380.488386 607.368025,379.094988 C606.36358,377.782651 605.373086,376.468916 604.368642,375.156578 C612.794815,356.813205 621.220988,338.471229 629.64716,320.129253 C629.479753,318.225735 629.242593,316.299855 628.935679,314.35441 C620.049136,333.704048 611.162593,353.052289 602.276049,372.401928 C599.053457,368.164434 595.830864,363.92694 592.608272,359.688048 C602.917778,336.673928 613.227284,313.659807 623.53679,290.645687 C623.118272,289.179614 622.657901,287.696771 622.18358,286.204145 C611.622963,309.775904 601.062346,333.34906 590.501728,356.920819 C585.507407,350.347952 580.513086,343.775084 575.518765,337.199422 C587.697654,311.37894 599.876543,285.55706 612.041481,259.735181 C611.511358,258.534651 610.953333,257.325735 610.381358,256.112627 C598.062963,282.228 585.744568,308.344771 573.426173,334.461542 C569.07358,328.727229 564.707037,322.991518 560.354444,317.258602 C560.228889,317.100675 560.117284,316.941349 559.991728,316.783422 C571.528889,288.433301 584.558765,260.939904 599.053457,234.406651 C598.45358,233.373831 597.853704,232.336819 597.239877,231.297012 C582.647531,257.922506 569.506049,285.517928 557.857284,313.970072 C557.299259,313.233542 556.727284,312.497012 556.169259,311.757687 C556.085556,311.578795 555.96,311.41947 555.820494,311.292289 C552.165432,306.490169 548.51037,301.685253 544.855309,296.881735 C554.927654,265.282217 566.520617,234.422024 579.592346,204.396193 C578.908765,203.445831 578.211235,202.498265 577.499753,201.550699 C564.386173,231.545783 552.751358,262.382217 542.63716,293.950988 C536.777901,286.239084 530.904691,278.527181 525.045432,270.81388 Z" id="Fill-125" fill="#FFFFFE" mask="url(#mask-8)"></path>
                        </g>
                    </g>
                </g>
            </g>
        </g>
    </g>
</svg>